<svg width="1400" height="960" viewBox="0 0 1400 960" xmlns="http://www.w3.org/2000/svg" font-family="'Segoe UI', Arial, sans-serif">
  <defs>
    <!-- Gradients -->
    <linearGradient id="bgGrad" x1="0%" y1="0%" x2="100%" y2="100%">
      <stop offset="0%" style="stop-color:#0F1B2D;stop-opacity:1"/>
      <stop offset="100%" style="stop-color:#162235;stop-opacity:1"/>
    </linearGradient>
    <linearGradient id="userGrad" x1="0%" y1="0%" x2="0%" y2="100%">
      <stop offset="0%" style="stop-color:#1E3A5F;stop-opacity:1"/>
      <stop offset="100%" style="stop-color:#152A4A;stop-opacity:1"/>
    </linearGradient>
    <linearGradient id="notifGrad" x1="0%" y1="0%" x2="0%" y2="100%">
      <stop offset="0%" style="stop-color:#1A3A2A;stop-opacity:1"/>
      <stop offset="100%" style="stop-color:#112A1E;stop-opacity:1"/>
    </linearGradient>
    <linearGradient id="kafkaGrad" x1="0%" y1="0%" x2="0%" y2="100%">
      <stop offset="0%" style="stop-color:#3D1F00;stop-opacity:1"/>
      <stop offset="100%" style="stop-color:#2A1500;stop-opacity:1"/>
    </linearGradient>
    <linearGradient id="obsGrad" x1="0%" y1="0%" x2="0%" y2="100%">
      <stop offset="0%" style="stop-color:#2A1A3A;stop-opacity:1"/>
      <stop offset="100%" style="stop-color:#1C1228;stop-opacity:1"/>
    </linearGradient>
    <linearGradient id="aiGrad" x1="0%" y1="0%" x2="0%" y2="100%">
      <stop offset="0%" style="stop-color:#1A1A3D;stop-opacity:1"/>
      <stop offset="100%" style="stop-color:#111128;stop-opacity:1"/>
    </linearGradient>
    <linearGradient id="headerGrad" x1="0%" y1="0%" x2="100%" y2="0%">
      <stop offset="0%" style="stop-color:#1B3A6B;stop-opacity:1"/>
      <stop offset="50%" style="stop-color:#0D5F5F;stop-opacity:1"/>
      <stop offset="100%" style="stop-color:#1B3A6B;stop-opacity:1"/>
    </linearGradient>

    <!-- Filters -->
    <filter id="glow-blue" x="-20%" y="-20%" width="140%" height="140%">
      <feGaussianBlur stdDeviation="3" result="blur"/>
      <feMerge><feMergeNode in="blur"/><feMergeNode in="SourceGraphic"/></feMerge>
    </filter>
    <filter id="glow-orange" x="-20%" y="-20%" width="140%" height="140%">
      <feGaussianBlur stdDeviation="2" result="blur"/>
      <feMerge><feMergeNode in="blur"/><feMergeNode in="SourceGraphic"/></feMerge>
    </filter>
    <filter id="shadow" x="-5%" y="-5%" width="110%" height="120%">
      <feDropShadow dx="0" dy="4" stdDeviation="8" flood-color="#000" flood-opacity="0.4"/>
    </filter>

    <!-- Arrow markers -->
    <marker id="arrow-blue" markerWidth="10" markerHeight="7" refX="9" refY="3.5" orient="auto">
      <polygon points="0 0, 10 3.5, 0 7" fill="#4A9EFF"/>
    </marker>
    <marker id="arrow-orange" markerWidth="10" markerHeight="7" refX="9" refY="3.5" orient="auto">
      <polygon points="0 0, 10 3.5, 0 7" fill="#FF8C42"/>
    </marker>
    <marker id="arrow-green" markerWidth="10" markerHeight="7" refX="9" refY="3.5" orient="auto">
      <polygon points="0 0, 10 3.5, 0 7" fill="#4ADE80"/>
    </marker>
    <marker id="arrow-purple" markerWidth="10" markerHeight="7" refX="9" refY="3.5" orient="auto">
      <polygon points="0 0, 10 3.5, 0 7" fill="#A78BFA"/>
    </marker>
    <marker id="arrow-cyan" markerWidth="10" markerHeight="7" refX="9" refY="3.5" orient="auto">
      <polygon points="0 0, 10 3.5, 0 7" fill="#22D3EE"/>
    </marker>
    <marker id="arrow-yellow" markerWidth="10" markerHeight="7" refX="9" refY="3.5" orient="auto">
      <polygon points="0 0, 10 3.5, 0 7" fill="#FACC15"/>
    </marker>
  </defs>

  <!-- Background -->
  <rect width="1400" height="960" fill="url(#bgGrad)"/>

  <!-- Subtle grid pattern -->
  <pattern id="grid" width="40" height="40" patternUnits="userSpaceOnUse">
    <path d="M 40 0 L 0 0 0 40" fill="none" stroke="#1E2D45" stroke-width="0.5"/>
  </pattern>
  <rect width="1400" height="960" fill="url(#grid)" opacity="0.4"/>

  <!-- ═══════════════════════════════════════════════════ -->
  <!-- HEADER -->
  <!-- ═══════════════════════════════════════════════════ -->
  <rect x="40" y="20" width="1320" height="80" rx="12" fill="url(#headerGrad)" filter="url(#shadow)"/>
  <rect x="40" y="20" width="1320" height="3" rx="2" fill="#4A9EFF" opacity="0.8"/>
  <text x="700" y="52" text-anchor="middle" font-size="26" font-weight="700" fill="#FFFFFF" letter-spacing="1">AI-Driven Microservices Platform</text>
  <text x="700" y="78" text-anchor="middle" font-size="13" fill="#94A3B8">Event-Driven · Cloud-Native · Observable · Resilient · Java 21 + Spring Boot 4</text>

  <!-- ═══════════════════════════════════════════════════ -->
  <!-- HTTP CLIENT (top left) -->
  <!-- ═══════════════════════════════════════════════════ -->
  <rect x="55" y="130" width="180" height="70" rx="10" fill="#1E2D3D" stroke="#4A9EFF" stroke-width="1.5" filter="url(#shadow)"/>
  <text x="145" y="157" text-anchor="middle" font-size="20">🌐</text>
  <text x="145" y="176" text-anchor="middle" font-size="13" font-weight="600" fill="#E2E8F0">HTTP Client</text>
  <text x="145" y="192" text-anchor="middle" font-size="11" fill="#64748B">REST / API Request</text>

  <!-- Arrow: Client → User Service -->
  <line x1="235" y1="165" x2="295" y2="213" stroke="#4A9EFF" stroke-width="2" marker-end="url(#arrow-blue)" stroke-dasharray="none"/>
  <rect x="240" y="175" width="50" height="16" rx="3" fill="#1B3A6B" opacity="0.8"/>
  <text x="265" y="187" text-anchor="middle" font-size="10" fill="#4A9EFF">POST /users</text>

  <!-- ═══════════════════════════════════════════════════ -->
  <!-- USER SERVICE BOX -->
  <!-- ═══════════════════════════════════════════════════ -->
  <rect x="280" y="130" width="340" height="380" rx="14" fill="url(#userGrad)" stroke="#4A9EFF" stroke-width="2" filter="url(#shadow)"/>
  <rect x="280" y="130" width="340" height="44" rx="14" fill="#1B3A6B"/>
  <rect x="280" y="158" width="340" height="16" fill="#1B3A6B"/>
  <text x="362" y="158" text-anchor="middle" font-size="18">☁️</text>
  <text x="450" y="158" text-anchor="middle" font-size="15" font-weight="700" fill="#FFFFFF">User Service</text>
  <text x="450" y="174" text-anchor="middle" font-size="11" fill="#93C5FD">Java 21 · Spring Boot 4 · MySQL · Port 8080</text>

  <!-- Endpoint badge -->
  <rect x="300" y="190" width="300" height="24" rx="5" fill="#0F2040" stroke="#4A9EFF" stroke-width="0.5"/>
  <text x="310" y="206" font-size="11" fill="#4A9EFF" font-family="'Courier New', monospace">POST /api/v1/users</text>

  <!-- Step 1 -->
  <rect x="300" y="224" width="300" height="48" rx="8" fill="#0D1F35" stroke="#2563EB" stroke-width="1"/>
  <text x="316" y="243" font-size="12" font-weight="600" fill="#93C5FD">① Save User</text>
  <text x="316" y="258" font-size="11" fill="#64748B">UserRepository.save() → MySQL</text>
  <text x="316" y="270" font-size="10" fill="#475569">users table · Liquibase migrations</text>

  <!-- Step 2 - Outbox (highlighted) -->
  <rect x="300" y="282" width="300" height="60" rx="8" fill="#0A1A35" stroke="#F59E0B" stroke-width="1.5"/>
  <rect x="300" y="282" width="8" height="60" rx="4" fill="#F59E0B"/>
  <text x="320" y="300" font-size="12" font-weight="700" fill="#FDE68A">② Transactional Outbox</text>
  <text x="320" y="316" font-size="11" fill="#94A3B8">Same DB transaction as user save</text>
  <text x="320" y="330" font-size="10" fill="#64748B">outbox_events table · status: PENDING</text>
  <text x="320" y="342" font-size="10" fill="#64748B">eventId · aggregateType · payload (Avro)</text>

  <!-- Step 3 - Scheduler -->
  <rect x="300" y="352" width="300" height="50" rx="8" fill="#0D1F35" stroke="#22D3EE" stroke-width="1"/>
  <text x="316" y="370" font-size="12" font-weight="600" fill="#67E8F9">③ Scheduled Outbox Publisher</text>
  <text x="316" y="385" font-size="11" fill="#64748B">@Scheduled · polls PENDING events</text>
  <text x="316" y="397" font-size="10" fill="#475569">status: PENDING → PUBLISHED · retry-safe</text>

  <!-- Step 4 - Avro -->
  <rect x="300" y="412" width="300" height="46" rx="8" fill="#0D1F35" stroke="#A78BFA" stroke-width="1"/>
  <text x="316" y="430" font-size="12" font-weight="600" fill="#C4B5FD">④ Avro Serialization</text>
  <text x="316" y="446" font-size="11" fill="#64748B">UserCreatedEvent → Avro schema</text>
  <text x="316" y="458" font-size="10" fill="#475569">common-schema module · Schema Registry</text>

  <!-- Step 5 - Correlation ID -->
  <rect x="300" y="468" width="300" height="32" rx="8" fill="#0D1F35" stroke="#34D399" stroke-width="1"/>
  <text x="316" y="482" font-size="11" font-weight="600" fill="#6EE7B7">⑤ Correlation ID + MDC Enrichment</text>
  <text x="316" y="495" font-size="10" fill="#64748B">X-Correlation-Id header → Kafka headers → Loki</text>

  <!-- Outbox metrics badge -->
  <rect x="300" y="508" width="300" height="22" rx="5" fill="#1A0A00" stroke="#F59E0B" stroke-width="0.5"/>
  <text x="316" y="523" font-size="10" fill="#FDE68A">📊 outbox.pending · outbox.processing · outbox.failed → Prometheus</text>

  <!-- ═══════════════════════════════════════════════════ -->
  <!-- KAFKA (center) -->
  <!-- ═══════════════════════════════════════════════════ -->
  <rect x="680" y="190" width="260" height="220" rx="14" fill="url(#kafkaGrad)" stroke="#FF8C42" stroke-width="2" filter="url(#shadow)"/>
  <rect x="680" y="190" width="260" height="44" rx="14" fill="#4A1F00"/>
  <rect x="680" y="218" width="260" height="16" fill="#4A1F00"/>
  <text x="762" y="216" text-anchor="middle" font-size="18">⚡</text>
  <text x="810" y="216" text-anchor="middle" font-size="15" font-weight="700" fill="#FFFFFF">Apache Kafka</text>
  <text x="810" y="232" text-anchor="middle" font-size="10" fill="#FB923C">KRaft Mode · No ZooKeeper · Docker</text>

  <rect x="700" y="248" width="220" height="28" rx="6" fill="#2D1200" stroke="#FF8C42" stroke-width="1"/>
  <text x="810" y="265" text-anchor="middle" font-size="12" font-weight="600" fill="#FED7AA">Topic: user-created-topic</text>

  <rect x="700" y="284" width="220" height="22" rx="5" fill="#1A0A00"/>
  <text x="810" y="299" text-anchor="middle" font-size="11" fill="#94A3B8">At-least-once delivery</text>

  <rect x="700" y="313" width="220" height="22" rx="5" fill="#1A0A00"/>
  <text x="810" y="328" text-anchor="middle" font-size="11" fill="#94A3B8">@RetryableTopic (3 retries)</text>

  <rect x="700" y="342" width="220" height="22" rx="5" fill="#1A0A00"/>
  <text x="810" y="357" text-anchor="middle" font-size="11" fill="#94A3B8">Dead Letter Topic (DLT)</text>

  <!-- Schema Registry -->
  <rect x="700" y="372" width="220" height="30" rx="6" fill="#2A1000" stroke="#FB923C" stroke-width="0.8"/>
  <text x="810" y="390" text-anchor="middle" font-size="11" font-weight="600" fill="#FDE68A">Confluent Schema Registry</text>
  <text x="810" y="403" text-anchor="middle" font-size="10" fill="#64748B">Avro · backward/forward compat</text>

  <!-- Arrow: User Service → Kafka -->
  <line x1="620" y1="350" x2="678" y2="310" stroke="#FF8C42" stroke-width="2.5" marker-end="url(#arrow-orange)" filter="url(#glow-orange)"/>
  <rect x="620" y="320" width="60" height="16" rx="3" fill="#2D1200"/>
  <text x="650" y="331" text-anchor="middle" font-size="10" fill="#FB923C">Publish</text>

  <!-- ═══════════════════════════════════════════════════ -->
  <!-- NOTIFICATION SERVICE BOX -->
  <!-- ═══════════════════════════════════════════════════ -->
  <rect x="1010" y="130" width="340" height="340" rx="14" fill="url(#notifGrad)" stroke="#4ADE80" stroke-width="2" filter="url(#shadow)"/>
  <rect x="1010" y="130" width="340" height="44" rx="14" fill="#14532D"/>
  <rect x="1010" y="158" width="340" height="16" fill="#14532D"/>
  <text x="1090" y="158" text-anchor="middle" font-size="18">🔔</text>
  <text x="1180" y="158" text-anchor="middle" font-size="15" font-weight="700" fill="#FFFFFF">Notification Service</text>
  <text x="1180" y="174" text-anchor="middle" font-size="11" fill="#86EFAC">Java 21 · Spring Boot 4 · PostgreSQL · Port 8081</text>

  <!-- Step 1 - Consumer -->
  <rect x="1028" y="190" width="304" height="48" rx="8" fill="#052E16" stroke="#16A34A" stroke-width="1"/>
  <text x="1044" y="209" font-size="12" font-weight="600" fill="#86EFAC">① Kafka Consumer</text>
  <text x="1044" y="224" font-size="11" fill="#64748B">@KafkaListener · Avro deserialization</text>
  <text x="1044" y="236" font-size="10" fill="#475569">consumer-notification-group · offset managed</text>

  <!-- Step 2 - Idempotency -->
  <rect x="1028" y="248" width="304" height="58" rx="8" fill="#052E16" stroke="#22C55E" stroke-width="1.5"/>
  <rect x="1028" y="248" width="8" height="58" rx="4" fill="#22C55E"/>
  <text x="1048" y="268" font-size="12" font-weight="700" fill="#4ADE80">② Idempotency Check</text>
  <text x="1048" y="284" font-size="11" fill="#94A3B8">eventId lookup in processed_events table</text>
  <text x="1048" y="298" font-size="10" fill="#64748B">Duplicate detection · DB + app-level guards</text>
  <text x="1048" y="308" font-size="10" fill="#64748B">Prevents duplicate notifications on retry</text>

  <!-- Step 3 - Retry/DLT -->
  <rect x="1028" y="316" width="304" height="48" rx="8" fill="#052E16" stroke="#FB923C" stroke-width="1"/>
  <text x="1044" y="334" font-size="12" font-weight="600" fill="#FED7AA">③ Retry + DLT Handling</text>
  <text x="1044" y="350" font-size="11" fill="#64748B">@RetryableTopic · exponential backoff</text>
  <text x="1044" y="362" font-size="10" fill="#475569">@DltHandler · custom failure processing</text>

  <!-- Step 4 - Correlation -->
  <rect x="1028" y="374" width="304" height="38" rx="8" fill="#052E16" stroke="#34D399" stroke-width="1"/>
  <text x="1044" y="391" font-size="11" font-weight="600" fill="#6EE7B7">④ Correlation ID Propagation</text>
  <text x="1044" y="405" font-size="10" fill="#64748B">Kafka header → MDC → structured JSON log → Loki</text>

  <!-- Step 5 - Notification -->
  <rect x="1028" y="422" width="304" height="38" rx="8" fill="#052E16" stroke="#86EFAC" stroke-width="1"/>
  <text x="1044" y="440" font-size="11" font-weight="600" fill="#A7F3D0">⑤ Process + Log Notification</text>
  <text x="1044" y="454" font-size="10" fill="#64748B">NotificationService · Flyway migrations</text>

  <!-- Arrow: Kafka → Notification Service -->
  <line x1="942" y1="310" x2="1008" y2="270" stroke="#4ADE80" stroke-width="2.5" marker-end="url(#arrow-green)" filter="url(#glow-blue)"/>
  <rect x="942" y="277" width="66" height="16" rx="3" fill="#052E16"/>
  <text x="975" y="288" text-anchor="middle" font-size="10" fill="#4ADE80">Consume</text>

  <!-- ═══════════════════════════════════════════════════ -->
  <!-- OBSERVABILITY STACK (bottom center) -->
  <!-- ═══════════════════════════════════════════════════ -->
  <rect x="200" y="560" width="960" height="260" rx="14" fill="url(#obsGrad)" stroke="#A78BFA" stroke-width="2" filter="url(#shadow)"/>
  <rect x="200" y="560" width="960" height="44" rx="14" fill="#3B0F6B"/>
  <rect x="200" y="588" width="960" height="16" fill="#3B0F6B"/>
  <text x="490" y="587" text-anchor="middle" font-size="18">📊</text>
  <text x="680" y="587" text-anchor="middle" font-size="15" font-weight="700" fill="#FFFFFF">Observability Stack</text>
  <text x="680" y="603" text-anchor="middle" font-size="11" fill="#C4B5FD">Metrics · Logs · Traces · Dashboards</text>

  <!-- Prometheus -->
  <rect x="220" y="618" width="190" height="130" rx="10" fill="#1C0A00" stroke="#E84C1C" stroke-width="1.5"/>
  <text x="315" y="642" text-anchor="middle" font-size="22">🔥</text>
  <text x="315" y="662" text-anchor="middle" font-size="13" font-weight="700" fill="#E84C1C">Prometheus</text>
  <text x="315" y="678" text-anchor="middle" font-size="10" fill="#94A3B8">localhost:9090</text>
  <rect x="234" y="688" width="162" height="14" rx="3" fill="#0F0500"/>
  <text x="315" y="699" text-anchor="middle" font-size="10" fill="#FB923C">JVM · HTTP · CPU · Kafka</text>
  <rect x="234" y="706" width="162" height="14" rx="3" fill="#0F0500"/>
  <text x="315" y="717" text-anchor="middle" font-size="10" fill="#FDE68A">outbox.pending/processing/failed</text>
  <rect x="234" y="724" width="162" height="14" rx="3" fill="#0F0500"/>
  <text x="315" y="735" text-anchor="middle" font-size="10" fill="#94A3B8">/actuator/prometheus (8080, 8081)</text>

  <!-- Grafana -->
  <rect x="430" y="618" width="190" height="130" rx="10" fill="#0F1F0F" stroke="#F97316" stroke-width="1.5"/>
  <text x="525" y="642" text-anchor="middle" font-size="22">📈</text>
  <text x="525" y="662" text-anchor="middle" font-size="13" font-weight="700" fill="#F97316">Grafana</text>
  <text x="525" y="678" text-anchor="middle" font-size="10" fill="#94A3B8">localhost:3000</text>
  <rect x="444" y="688" width="162" height="14" rx="3" fill="#050F05"/>
  <text x="525" y="699" text-anchor="middle" font-size="10" fill="#86EFAC">AI Microservices Dashboard</text>
  <rect x="444" y="706" width="162" height="14" rx="3" fill="#050F05"/>
  <text x="525" y="717" text-anchor="middle" font-size="10" fill="#FDE68A">Outbox Health · Kafka Throughput</text>
  <rect x="444" y="724" width="162" height="14" rx="3" fill="#050F05"/>
  <text x="525" y="735" text-anchor="middle" font-size="10" fill="#94A3B8">Prometheus + Loki datasources</text>

  <!-- Loki -->
  <rect x="640" y="618" width="190" height="130" rx="10" fill="#0A0F1A" stroke="#22D3EE" stroke-width="1.5"/>
  <text x="735" y="642" text-anchor="middle" font-size="22">🪵</text>
  <text x="735" y="662" text-anchor="middle" font-size="13" font-weight="700" fill="#22D3EE">Loki + Promtail</text>
  <text x="735" y="678" text-anchor="middle" font-size="10" fill="#94A3B8">localhost:3100 · localhost:9080</text>
  <rect x="654" y="688" width="162" height="14" rx="3" fill="#050A0F"/>
  <text x="735" y="699" text-anchor="middle" font-size="10" fill="#67E8F9">Structured JSON log ingestion</text>
  <rect x="654" y="706" width="162" height="14" rx="3" fill="#050A0F"/>
  <text x="735" y="717" text-anchor="middle" font-size="10" fill="#A5F3FC">Cross-service traceId search</text>
  <rect x="654" y="724" width="162" height="14" rx="3" fill="#050A0F"/>
  <text x="735" y="735" text-anchor="middle" font-size="10" fill="#94A3B8">LogQL · Grafana Explore</text>

  <!-- GitHub Actions -->
  <rect x="850" y="618" width="190" height="130" rx="10" fill="#0A0F1A" stroke="#A78BFA" stroke-width="1.5"/>
  <text x="945" y="642" text-anchor="middle" font-size="22">🔄</text>
  <text x="945" y="662" text-anchor="middle" font-size="13" font-weight="700" fill="#A78BFA">GitHub Actions</text>
  <text x="945" y="678" text-anchor="middle" font-size="10" fill="#94A3B8">CI Pipeline</text>
  <rect x="864" y="688" width="162" height="14" rx="3" fill="#05050F"/>
  <text x="945" y="699" text-anchor="middle" font-size="10" fill="#C4B5FD">Build + Test on push</text>
  <rect x="864" y="706" width="162" height="14" rx="3" fill="#05050F"/>
  <text x="945" y="717" text-anchor="middle" font-size="10" fill="#DDD6FE">Gradle · Docker build</text>
  <rect x="864" y="724" width="162" height="14" rx="3" fill="#05050F"/>
  <text x="945" y="735" text-anchor="middle" font-size="10" fill="#94A3B8">Build Status Badge ✅</text>

  <!-- Observability arrows from services -->
  <!-- User → Prometheus -->
  <line x1="450" y1="508" x2="350" y2="558" stroke="#E84C1C" stroke-width="1.5" stroke-dasharray="6,3" marker-end="url(#arrow-orange)"/>
  <text x="380" y="537" text-anchor="middle" font-size="10" fill="#E84C1C">metrics</text>

  <!-- Notification → Prometheus -->
  <line x1="1100" y1="470" x2="450" y2="558" stroke="#E84C1C" stroke-width="1.5" stroke-dasharray="6,3" marker-end="url(#arrow-orange)"/>

  <!-- User → Loki (logs) -->
  <line x1="450" y1="520" x2="680" y2="558" stroke="#22D3EE" stroke-width="1.5" stroke-dasharray="6,3" marker-end="url(#arrow-cyan)"/>
  <text x="580" y="545" text-anchor="middle" font-size="10" fill="#22D3EE">logs + traceId</text>

  <!-- Notification → Loki (logs) -->
  <line x1="1100" y1="470" x2="780" y2="558" stroke="#22D3EE" stroke-width="1.5" stroke-dasharray="6,3" marker-end="url(#arrow-cyan)"/>

  <!-- Prometheus → Grafana -->
  <line x1="410" y1="685" x2="428" y2="685" stroke="#F97316" stroke-width="1.5" marker-end="url(#arrow-orange)"/>

  <!-- Loki → Grafana -->
  <line x1="638" y1="685" x2="622" y2="685" stroke="#22D3EE" stroke-width="1.5" marker-end="url(#arrow-cyan)"/>

  <!-- ═══════════════════════════════════════════════════ -->
  <!-- AI SERVICE (planned) -->
  <!-- ═══════════════════════════════════════════════════ -->
  <rect x="680" y="130" width="260" height="52" rx="10" fill="url(#aiGrad)" stroke="#818CF8" stroke-width="1.5" stroke-dasharray="6,3" filter="url(#shadow)"/>
  <text x="762" y="150" text-anchor="middle" font-size="14">🤖</text>
  <text x="830" y="150" text-anchor="middle" font-size="13" font-weight="700" fill="#A5B4FC">AI Service</text>
  <text x="810" y="166" text-anchor="middle" font-size="10" fill="#64748B">Spring AI + OpenAI + LangChain4j Agent</text>
  <rect x="1075" y="133" width="55" height="16" rx="4" fill="#312E81"/>
  <text x="1102" y="144" text-anchor="middle" font-size="9" fill="#A5B4FC">PLANNED</text>

  <!-- Arrow: Kafka → AI Service -->
  <line x1="810" y1="190" x2="810" y2="184" stroke="#818CF8" stroke-width="1.5" stroke-dasharray="4,3" marker-end="url(#arrow-purple)"/>

  <!-- ═══════════════════════════════════════════════════ -->
  <!-- DATABASES (right side) -->
  <!-- ═══════════════════════════════════════════════════ -->
  <!-- MySQL -->
  <rect x="55" y="420" width="180" height="90" rx="10" fill="#1A0D00" stroke="#F59E0B" stroke-width="1.5" filter="url(#shadow)"/>
  <text x="145" y="450" text-anchor="middle" font-size="20">🗄️</text>
  <text x="145" y="470" text-anchor="middle" font-size="13" font-weight="600" fill="#FDE68A">MySQL</text>
  <text x="145" y="485" text-anchor="middle" font-size="10" fill="#94A3B8">users · outbox_events</text>
  <text x="145" y="498" text-anchor="middle" font-size="10" fill="#64748B">Liquibase migrations</text>

  <!-- Arrow: User Service → MySQL -->
  <line x1="280" y1="290" x2="237" y2="445" stroke="#F59E0B" stroke-width="1.5" marker-end="url(#arrow-yellow)"/>

  <!-- PostgreSQL -->
  <rect x="1185" y="420" width="180" height="90" rx="10" fill="#0A1A2A" stroke="#38BDF8" stroke-width="1.5" filter="url(#shadow)"/>
  <text x="1275" y="450" text-anchor="middle" font-size="20">🐘</text>
  <text x="1275" y="470" text-anchor="middle" font-size="13" font-weight="600" fill="#7DD3FC">PostgreSQL</text>
  <text x="1275" y="485" text-anchor="middle" font-size="10" fill="#94A3B8">notifications · processed_events</text>
  <text x="1275" y="498" text-anchor="middle" font-size="10" fill="#64748B">Flyway migrations</text>

  <!-- Arrow: Notification Service → PostgreSQL -->
  <line x1="1180" y1="350" x2="1230" y2="418" stroke="#38BDF8" stroke-width="1.5" marker-end="url(#arrow-cyan)"/>

  <!-- ═══════════════════════════════════════════════════ -->
  <!-- TECH STACK LEGEND (right side) -->
  <!-- ═══════════════════════════════════════════════════ -->
  <rect x="55" y="540" width="180" height="270" rx="10" fill="#0F1B2D" stroke="#334155" stroke-width="1" filter="url(#shadow)"/>
  <text x="145" y="562" text-anchor="middle" font-size="12" font-weight="700" fill="#94A3B8" letter-spacing="1">TECH STACK</text>
  <line x1="70" y1="568" x2="220" y2="568" stroke="#334155" stroke-width="1"/>

  <text x="75" y="588" font-size="11" fill="#FDE68A">☕ Java 21 (Virtual Threads)</text>
  <text x="75" y="606" font-size="11" fill="#86EFAC">🍃 Spring Boot 4 + Kafka</text>
  <text x="75" y="624" font-size="11" fill="#FED7AA">⚡ Apache Kafka (KRaft)</text>
  <text x="75" y="642" font-size="11" fill="#C4B5FD">📋 Avro + Schema Registry</text>
  <text x="75" y="660" font-size="11" fill="#FDE68A">🗄️ MySQL + PostgreSQL</text>
  <text x="75" y="678" font-size="11" fill="#7DD3FC">🐳 Docker Compose</text>
  <text x="75" y="696" font-size="11" fill="#F9A8D4">📊 Prometheus + Grafana</text>
  <text x="75" y="714" font-size="11" fill="#67E8F9">🪵 Loki + Promtail</text>
  <text x="75" y="732" font-size="11" fill="#A5B4FC">🔄 GitHub Actions (CI)</text>
  <text x="75" y="750" font-size="11" fill="#94A3B8">🔜 EKS + Terraform (planned)</text>
  <text x="75" y="768" font-size="11" fill="#94A3B8">🔜 Spring AI + LangChain4j</text>
  <text x="75" y="786" font-size="11" fill="#94A3B8">🔜 OpenTelemetry + Jaeger</text>

  <!-- ═══════════════════════════════════════════════════ -->
  <!-- PLANNED SERVICES (right side) -->
  <!-- ═══════════════════════════════════════════════════ -->
  <rect x="1185" y="540" width="180" height="145" rx="10" fill="#0F1B2D" stroke="#334155" stroke-width="1" stroke-dasharray="5,3" filter="url(#shadow)"/>
  <text x="1275" y="562" text-anchor="middle" font-size="12" font-weight="700" fill="#64748B" letter-spacing="1">ROADMAP</text>
  <line x1="1200" y1="568" x2="1350" y2="568" stroke="#334155" stroke-width="1"/>
  <text x="1200" y="588" font-size="11" fill="#64748B">🔜 Payment Service</text>
  <text x="1210" y="604" font-size="10" fill="#475569">Saga choreography pattern</text>
  <text x="1200" y="622" font-size="11" fill="#64748B">🔜 API Gateway</text>
  <text x="1210" y="638" font-size="10" fill="#475569">Spring Cloud Gateway + JWT</text>
  <text x="1200" y="656" font-size="11" fill="#64748B">🔜 AWS EKS Deploy</text>
  <text x="1210" y="672" font-size="10" fill="#475569">Terraform + Helm charts</text>

  <!-- ═══════════════════════════════════════════════════ -->
  <!-- CORRELATION ID FLOW (dotted across top) -->
  <!-- ═══════════════════════════════════════════════════ -->
  <path d="M 145 130 Q 450 100 810 100 Q 1100 100 1275 130" stroke="#34D399" stroke-width="1.5" fill="none" stroke-dasharray="5,4" opacity="0.6"/>
  <text x="700" y="96" text-anchor="middle" font-size="10" fill="#34D399" opacity="0.8">── Correlation ID propagation (X-Correlation-Id → Kafka Headers → MDC → Loki) ──</text>

  <!-- ═══════════════════════════════════════════════════ -->
  <!-- FOOTER -->
  <!-- ═══════════════════════════════════════════════════ -->
  <rect x="40" y="840" width="1320" height="40" rx="8" fill="#0A1220" stroke="#1E2D45" stroke-width="1"/>
  <text x="140" y="856" text-anchor="middle" font-size="10" fill="#475569">github.com/Rummy43/ai-microservices-platform</text>
  <text x="700" y="856" text-anchor="middle" font-size="11" font-weight="600" fill="#64748B">Event-Driven · Resilient · Observable · Production-Ready Patterns</text>
  <text x="1250" y="856" text-anchor="middle" font-size="10" fill="#475569">by Ramesh Yara · 2026</text>
  <line x1="40" y1="862" x2="1360" y2="862" stroke="#1E2D45" stroke-width="1"/>

  <!-- Legend for arrows -->
  <text x="700" y="876" text-anchor="middle" font-size="10" fill="#64748B">
    <tspan>── Sync/Async Event Flow</tspan>
    <tspan dx="16">╌╌ Metrics/Logs Collection</tspan>
    <tspan dx="16">┄┄ Planned Features</tspan>
    <tspan dx="16">── Correlation ID Propagation</tspan>
  </text>

</svg>
