<svg width="1500" height="980" viewBox="0 0 1500 980" xmlns="http://www.w3.org/2000/svg" font-family="'Segoe UI', Arial, sans-serif">
  <defs>
    <linearGradient id="bg" x1="0%" y1="0%" x2="100%" y2="100%">
      <stop offset="0%" stop-color="#0E1A2B"/><stop offset="100%" stop-color="#152134"/>
    </linearGradient>
    <linearGradient id="hdr" x1="0%" y1="0%" x2="100%" y2="0%">
      <stop offset="0%" stop-color="#1B3A6B"/><stop offset="50%" stop-color="#0D5F5F"/><stop offset="100%" stop-color="#1B3A6B"/>
    </linearGradient>
    <linearGradient id="gwG" x1="0" y1="0" x2="0" y2="1"><stop offset="0" stop-color="#2A1E4A"/><stop offset="1" stop-color="#1C1330"/></linearGradient>
    <linearGradient id="usG" x1="0" y1="0" x2="0" y2="1"><stop offset="0" stop-color="#1E3A5F"/><stop offset="1" stop-color="#152A4A"/></linearGradient>
    <linearGradient id="kfG" x1="0" y1="0" x2="0" y2="1"><stop offset="0" stop-color="#3D1F00"/><stop offset="1" stop-color="#2A1500"/></linearGradient>
    <linearGradient id="nfG" x1="0" y1="0" x2="0" y2="1"><stop offset="0" stop-color="#1A3A2A"/><stop offset="1" stop-color="#112A1E"/></linearGradient>
    <linearGradient id="obG" x1="0" y1="0" x2="0" y2="1"><stop offset="0" stop-color="#241A38"/><stop offset="1" stop-color="#181026"/></linearGradient>
    <linearGradient id="rsG" x1="0" y1="0" x2="0" y2="1"><stop offset="0" stop-color="#3A1622"/><stop offset="1" stop-color="#280F18"/></linearGradient>
    <filter id="sh" x="-5%" y="-5%" width="110%" height="120%"><feDropShadow dx="0" dy="4" stdDeviation="8" flood-color="#000" flood-opacity="0.4"/></filter>
    <marker id="aB" markerWidth="10" markerHeight="7" refX="9" refY="3.5" orient="auto"><polygon points="0 0,10 3.5,0 7" fill="#4A9EFF"/></marker>
    <marker id="aO" markerWidth="10" markerHeight="7" refX="9" refY="3.5" orient="auto"><polygon points="0 0,10 3.5,0 7" fill="#FF8C42"/></marker>
    <marker id="aG" markerWidth="10" markerHeight="7" refX="9" refY="3.5" orient="auto"><polygon points="0 0,10 3.5,0 7" fill="#4ADE80"/></marker>
    <marker id="aP" markerWidth="10" markerHeight="7" refX="9" refY="3.5" orient="auto"><polygon points="0 0,10 3.5,0 7" fill="#A78BFA"/></marker>
    <marker id="aY" markerWidth="10" markerHeight="7" refX="9" refY="3.5" orient="auto"><polygon points="0 0,10 3.5,0 7" fill="#F59E0B"/></marker>
    <marker id="aC" markerWidth="10" markerHeight="7" refX="9" refY="3.5" orient="auto"><polygon points="0 0,10 3.5,0 7" fill="#38BDF8"/></marker>
    <marker id="aV" markerWidth="9" markerHeight="6" refX="8" refY="3" orient="auto"><polygon points="0 0,9 3,0 6" fill="#8B5CF6"/></marker>
  </defs>

  <rect width="1500" height="980" fill="url(#bg)"/>
  <pattern id="grid" width="40" height="40" patternUnits="userSpaceOnUse"><path d="M40 0 L0 0 0 40" fill="none" stroke="#1E2D45" stroke-width="0.5"/></pattern>
  <rect width="1500" height="980" fill="url(#grid)" opacity="0.35"/>

  <!-- HEADER -->
  <rect x="40" y="20" width="1420" height="82" rx="12" fill="url(#hdr)" filter="url(#sh)"/>
  <rect x="40" y="20" width="1420" height="3" rx="2" fill="#4A9EFF" opacity="0.8"/>
  <text x="750" y="54" text-anchor="middle" font-size="27" font-weight="700" fill="#FFFFFF" letter-spacing="1">AI-Driven Microservices Platform</text>
  <text x="750" y="80" text-anchor="middle" font-size="13" fill="#A9C0DA">Event-Driven · Secure · Observable · Resilient — Java 21 · Spring Boot · Virtual Threads · v1.6</text>

  <!-- identity/trace context propagation ribbon -->
  <path d="M110 148 Q 400 120 750 120 Q 1150 120 1385 148" stroke="#34D399" stroke-width="1.4" fill="none" stroke-dasharray="5,4" opacity="0.65"/>
  <text x="750" y="140" text-anchor="middle" font-size="10.5" fill="#34D399" opacity="0.9">Identity &amp; trace context propagated: Gateway → outbox row (same TX) → Kafka headers → DLT  ·  audit-safe across async hops (ADR-013)</text>

  <!-- ============ FLOW ROW ============ -->
  <!-- HTTP CLIENT -->
  <rect x="40" y="230" width="128" height="70" rx="10" fill="#1E2D3D" stroke="#4A9EFF" stroke-width="1.4" filter="url(#sh)"/>
  <text x="104" y="262" text-anchor="middle" font-size="13" font-weight="600" fill="#E2E8F0">HTTP Client</text>
  <text x="104" y="281" text-anchor="middle" font-size="10.5" fill="#64748B">REST / API request</text>
  <line x1="168" y1="265" x2="186" y2="265" stroke="#4A9EFF" stroke-width="2" marker-end="url(#aB)"/>

  <!-- API GATEWAY -->
  <rect x="188" y="152" width="300" height="226" rx="14" fill="url(#gwG)" stroke="#A78BFA" stroke-width="2" filter="url(#sh)"/>
  <rect x="188" y="152" width="300" height="42" rx="14" fill="#3B2D5E"/><rect x="188" y="178" width="300" height="16" fill="#3B2D5E"/>
  <text x="338" y="180" text-anchor="middle" font-size="15" font-weight="700" fill="#FFFFFF">🔐 API Gateway</text>
  <text x="338" y="211" text-anchor="middle" font-size="11" fill="#C4B5FD">Spring Cloud Gateway MVC · Port 8082</text>
  <rect x="206" y="222" width="264" height="30" rx="6" fill="#160E28" stroke="#8B5CF6" stroke-width="0.8"/>
  <text x="338" y="241" text-anchor="middle" font-size="11" fill="#DDD6FE">OAuth2 Resource Server — validates Keycloak JWT</text>
  <rect x="206" y="258" width="264" height="26" rx="6" fill="#160E28"/>
  <text x="338" y="275" text-anchor="middle" font-size="10.5" fill="#94A3B8">RBAC: ROLE_ADMIN / ROLE_USER · realm-role mapping</text>
  <rect x="206" y="290" width="264" height="26" rx="6" fill="#160E28"/>
  <text x="338" y="307" text-anchor="middle" font-size="10.5" fill="#94A3B8">Perimeter rate limiting (Resilience4j)</text>
  <rect x="206" y="322" width="264" height="40" rx="6" fill="#160E28" stroke="#34D399" stroke-width="0.8"/>
  <text x="338" y="339" text-anchor="middle" font-size="10.5" font-weight="600" fill="#6EE7B7">Anti-spoofing: overwrites X-User-* headers</text>
  <text x="338" y="354" text-anchor="middle" font-size="10" fill="#64748B">trusted identity injected from JWT claims</text>

  <line x1="488" y1="265" x2="518" y2="265" stroke="#4A9EFF" stroke-width="2.5" marker-end="url(#aB)"/>
  <rect x="486" y="234" width="34" height="15" rx="3" fill="#12233F"/><text x="503" y="245" text-anchor="middle" font-size="9" fill="#7DB2FF">HTTP</text>

  <!-- USER SERVICE -->
  <rect x="520" y="152" width="320" height="226" rx="14" fill="url(#usG)" stroke="#4A9EFF" stroke-width="2" filter="url(#sh)"/>
  <rect x="520" y="152" width="320" height="42" rx="14" fill="#1B3A6B"/><rect x="520" y="178" width="320" height="16" fill="#1B3A6B"/>
  <text x="680" y="180" text-anchor="middle" font-size="15" font-weight="700" fill="#FFFFFF">☁️ User Service</text>
  <text x="680" y="211" text-anchor="middle" font-size="11" fill="#93C5FD">Spring Boot · MySQL + Liquibase · Port 8080</text>
  <rect x="538" y="222" width="284" height="26" rx="6" fill="#0D1F35"/>
  <text x="680" y="239" text-anchor="middle" font-size="10.5" fill="#94A3B8">① Save user + outbox row in ONE transaction</text>
  <rect x="538" y="254" width="284" height="44" rx="6" fill="#0A1A35" stroke="#F59E0B" stroke-width="1.4"/>
  <rect x="538" y="254" width="7" height="44" rx="3" fill="#F59E0B"/>
  <text x="686" y="271" text-anchor="middle" font-size="11" font-weight="700" fill="#FDE68A">② Transactional Outbox</text>
  <text x="686" y="288" text-anchor="middle" font-size="10" fill="#64748B">PENDING → PROCESSING → PUBLISHED · retry-safe</text>
  <rect x="538" y="304" width="284" height="26" rx="6" fill="#0D1F35"/>
  <text x="680" y="321" text-anchor="middle" font-size="10.5" fill="#94A3B8">③ @Scheduled publisher · Avro + Schema Registry</text>
  <rect x="538" y="336" width="284" height="26" rx="6" fill="#0D1F35" stroke="#34D399" stroke-width="0.7"/>
  <text x="680" y="353" text-anchor="middle" font-size="10.5" fill="#6EE7B7">④ Actor identity persisted on outbox row</text>

  <line x1="840" y1="265" x2="868" y2="265" stroke="#FF8C42" stroke-width="2.5" marker-end="url(#aO)"/>
  <rect x="838" y="234" width="46" height="15" rx="3" fill="#2D1200"/><text x="861" y="245" text-anchor="middle" font-size="9" fill="#FB923C">publish</text>

  <!-- KAFKA -->
  <rect x="870" y="152" width="262" height="226" rx="14" fill="url(#kfG)" stroke="#FF8C42" stroke-width="2" filter="url(#sh)"/>
  <rect x="870" y="152" width="262" height="42" rx="14" fill="#4A1F00"/><rect x="870" y="178" width="262" height="16" fill="#4A1F00"/>
  <text x="1001" y="180" text-anchor="middle" font-size="15" font-weight="700" fill="#FFFFFF">⚡ Apache Kafka</text>
  <text x="1001" y="211" text-anchor="middle" font-size="10.5" fill="#FB923C">KRaft mode · no ZooKeeper · Docker</text>
  <rect x="888" y="222" width="226" height="26" rx="6" fill="#2D1200" stroke="#FF8C42" stroke-width="0.8"/>
  <text x="1001" y="239" text-anchor="middle" font-size="11" font-weight="600" fill="#FED7AA">Topic: user-created-topic</text>
  <rect x="888" y="254" width="226" height="24" rx="5" fill="#1A0A00"/><text x="1001" y="270" text-anchor="middle" font-size="10.5" fill="#94A3B8">At-least-once delivery</text>
  <rect x="888" y="284" width="226" height="24" rx="5" fill="#1A0A00"/><text x="1001" y="300" text-anchor="middle" font-size="10.5" fill="#94A3B8">Retry topics (bounded) → DLT</text>
  <rect x="888" y="314" width="226" height="48" rx="6" fill="#2A1000" stroke="#FB923C" stroke-width="0.8"/>
  <text x="1001" y="332" text-anchor="middle" font-size="11" font-weight="600" fill="#FDE68A">Confluent Schema Registry</text>
  <text x="1001" y="348" text-anchor="middle" font-size="10" fill="#64748B">Avro · backward/forward compatibility</text>

  <line x1="1132" y1="265" x2="1158" y2="265" stroke="#4ADE80" stroke-width="2.5" marker-end="url(#aG)"/>
  <rect x="1130" y="234" width="50" height="15" rx="3" fill="#052E16"/><text x="1155" y="245" text-anchor="middle" font-size="9" fill="#4ADE80">consume</text>

  <!-- NOTIFICATION SERVICE -->
  <rect x="1160" y="152" width="300" height="226" rx="14" fill="url(#nfG)" stroke="#4ADE80" stroke-width="2" filter="url(#sh)"/>
  <rect x="1160" y="152" width="300" height="42" rx="14" fill="#14532D"/><rect x="1160" y="178" width="300" height="16" fill="#14532D"/>
  <text x="1310" y="180" text-anchor="middle" font-size="15" font-weight="700" fill="#FFFFFF">🔔 Notification Service</text>
  <text x="1310" y="211" text-anchor="middle" font-size="11" fill="#86EFAC">Spring Boot · PostgreSQL + Flyway · Port 8081</text>
  <rect x="1178" y="222" width="264" height="26" rx="6" fill="#052E16"/>
  <text x="1310" y="239" text-anchor="middle" font-size="10.5" fill="#94A3B8">① @KafkaListener · Avro deserialization</text>
  <rect x="1178" y="254" width="264" height="44" rx="6" fill="#052E16" stroke="#22C55E" stroke-width="1.4"/>
  <rect x="1178" y="254" width="7" height="44" rx="3" fill="#22C55E"/>
  <text x="1316" y="271" text-anchor="middle" font-size="11" font-weight="700" fill="#4ADE80">② Idempotent consumer</text>
  <text x="1316" y="288" text-anchor="middle" font-size="10" fill="#64748B">app check + DB UNIQUE(event_id) = final arbiter</text>
  <rect x="1178" y="304" width="264" height="26" rx="6" fill="#052E16"/>
  <text x="1310" y="321" text-anchor="middle" font-size="10.5" fill="#FED7AA">③ Retry + @DltHandler → dead_letter_events</text>
  <rect x="1178" y="336" width="264" height="26" rx="6" fill="#052E16" stroke="#F87171" stroke-width="0.8"/>
  <text x="1310" y="353" text-anchor="middle" font-size="10.5" fill="#FCA5A5">④ Self-healing DLT reprocessor (scheduled)</text>

  <!-- DATABASES -->
  <rect x="590" y="404" width="180" height="82" rx="10" fill="#1A0D00" stroke="#F59E0B" stroke-width="1.4" filter="url(#sh)"/>
  <text x="680" y="432" text-anchor="middle" font-size="13" font-weight="600" fill="#FDE68A">🗄️ MySQL</text>
  <text x="680" y="451" text-anchor="middle" font-size="10" fill="#94A3B8">users · outbox_events</text>
  <text x="680" y="468" text-anchor="middle" font-size="10" fill="#64748B">Liquibase · ddl-auto=none</text>
  <line x1="680" y1="378" x2="680" y2="402" stroke="#F59E0B" stroke-width="1.5" marker-end="url(#aY)"/>

  <rect x="1220" y="404" width="180" height="82" rx="10" fill="#0A1A2A" stroke="#38BDF8" stroke-width="1.4" filter="url(#sh)"/>
  <text x="1310" y="432" text-anchor="middle" font-size="13" font-weight="600" fill="#7DD3FC">🐘 PostgreSQL</text>
  <text x="1310" y="451" text-anchor="middle" font-size="10" fill="#94A3B8">notifications · processed_events</text>
  <text x="1310" y="468" text-anchor="middle" font-size="10" fill="#64748B">dead_letter_events · Flyway</text>
  <line x1="1310" y1="378" x2="1310" y2="402" stroke="#38BDF8" stroke-width="1.5" marker-end="url(#aC)"/>

  <!-- RESILIENCE LAYER -->
  <rect x="820" y="400" width="360" height="90" rx="12" fill="url(#rsG)" stroke="#FB7185" stroke-width="1.8" filter="url(#sh)"/>
  <text x="1000" y="424" text-anchor="middle" font-size="13" font-weight="700" fill="#FDA4AF">🛡️ Resilience Layer · Resilience4j</text>
  <text x="1000" y="446" text-anchor="middle" font-size="10.5" fill="#FBB6C1">Circuit breakers on outbound dependencies</text>
  <text x="1000" y="463" text-anchor="middle" font-size="10.5" fill="#FBB6C1">Perimeter rate limiting · bounded retry</text>
  <text x="1000" y="480" text-anchor="middle" font-size="10.5" fill="#FBB6C1">Self-healing DLT: replay + backoff + poison-cap</text>

  <!-- ============ OBSERVABILITY BAND ============ -->
  <rect x="40" y="520" width="1420" height="272" rx="14" fill="url(#obG)" stroke="#A78BFA" stroke-width="2" filter="url(#sh)"/>
  <rect x="40" y="520" width="1420" height="42" rx="14" fill="#3B0F6B"/><rect x="40" y="546" width="1420" height="16" fill="#3B0F6B"/>
  <text x="750" y="548" text-anchor="middle" font-size="15" font-weight="700" fill="#FFFFFF">📊 Observability — three pillars, provisioned as code</text>
  <text x="1230" y="548" text-anchor="middle" font-size="10.5" fill="#C4B5FD">OpenTelemetry Java agent → all services</text>

  <!-- dashed collectors from services into band -->
  <line x1="338" y1="378" x2="360" y2="518" stroke="#8B5CF6" stroke-width="1.3" stroke-dasharray="6,3" marker-end="url(#aV)" opacity="0.8"/>
  <line x1="680" y1="486" x2="700" y2="518" stroke="#8B5CF6" stroke-width="1.3" stroke-dasharray="6,3" marker-end="url(#aV)" opacity="0.8"/>
  <line x1="1310" y1="486" x2="1120" y2="518" stroke="#8B5CF6" stroke-width="1.3" stroke-dasharray="6,3" marker-end="url(#aV)" opacity="0.8"/>
  <text x="470" y="512" text-anchor="middle" font-size="10" fill="#A78BFA" opacity="0.85">traces · metrics · logs (trace_id)</text>

  <!-- Tempo -->
  <rect x="62" y="582" width="322" height="190" rx="10" fill="#160E22" stroke="#EC6A9C" stroke-width="1.4"/>
  <text x="223" y="608" text-anchor="middle" font-size="14" font-weight="700" fill="#F49CC0">Tempo — Distributed Tracing</text>
  <text x="223" y="631" text-anchor="middle" font-size="10.5" fill="#94A3B8">OpenTelemetry spans · localhost:3200</text>
  <rect x="80" y="644" width="286" height="30" rx="5" fill="#0C0710"/>
  <text x="223" y="663" text-anchor="middle" font-size="10.5" fill="#F9A8D4">Service graph generated from live spans</text>
  <rect x="80" y="680" width="286" height="30" rx="5" fill="#0C0710"/>
  <text x="223" y="699" text-anchor="middle" font-size="10.5" fill="#94A3B8">metrics-generator → Prometheus remote-write</text>
  <rect x="80" y="716" width="286" height="42" rx="5" fill="#0C0710" stroke="#FBBF24" stroke-width="0.7"/>
  <text x="223" y="733" text-anchor="middle" font-size="10" fill="#FDE68A">Verified via TraceQL — surfaced a silent gap:</text>
  <text x="223" y="749" text-anchor="middle" font-size="10" fill="#64748B">0 Kafka spans under current agent (upgrade pending)</text>

  <!-- Prometheus -->
  <rect x="404" y="582" width="322" height="190" rx="10" fill="#1C0A00" stroke="#E6522C" stroke-width="1.4"/>
  <text x="565" y="608" text-anchor="middle" font-size="14" font-weight="700" fill="#F2734B">Prometheus — Metrics</text>
  <text x="565" y="631" text-anchor="middle" font-size="10.5" fill="#94A3B8">/actuator/prometheus · localhost:9090</text>
  <rect x="422" y="644" width="286" height="30" rx="5" fill="#0F0500"/>
  <text x="565" y="663" text-anchor="middle" font-size="10.5" fill="#FB923C">JVM · HTTP · Kafka consumer · outbox health</text>
  <rect x="422" y="680" width="286" height="30" rx="5" fill="#0F0500"/>
  <text x="565" y="699" text-anchor="middle" font-size="10.5" fill="#FDE68A">Business metrics: users, notifications, funnel</text>
  <rect x="422" y="716" width="286" height="42" rx="5" fill="#0F0500"/>
  <text x="565" y="733" text-anchor="middle" font-size="10" fill="#94A3B8">Micrometer · remote-write receiver enabled</text>
  <text x="565" y="749" text-anchor="middle" font-size="10" fill="#64748B">domain flow, not just runtime health</text>

  <!-- Loki -->
  <rect x="746" y="582" width="322" height="190" rx="10" fill="#0A0F1A" stroke="#22D3EE" stroke-width="1.4"/>
  <text x="907" y="608" text-anchor="middle" font-size="14" font-weight="700" fill="#67E8F9">Loki + Promtail — Logs</text>
  <text x="907" y="631" text-anchor="middle" font-size="10.5" fill="#94A3B8">localhost:3100 · Promtail shipper</text>
  <rect x="764" y="644" width="286" height="30" rx="5" fill="#050A0F"/>
  <text x="907" y="663" text-anchor="middle" font-size="10.5" fill="#A5F3FC">Structured JSON · trace_id on every line</text>
  <rect x="764" y="680" width="286" height="30" rx="5" fill="#050A0F"/>
  <text x="907" y="699" text-anchor="middle" font-size="10.5" fill="#94A3B8">LogQL · cross-service correlation</text>
  <rect x="764" y="716" width="286" height="42" rx="5" fill="#050A0F"/>
  <text x="907" y="733" text-anchor="middle" font-size="10" fill="#94A3B8">pipe-delimited, MDC-enriched</text>
  <text x="907" y="749" text-anchor="middle" font-size="10" fill="#64748B">one query traces an async workflow end-to-end</text>

  <!-- Grafana -->
  <rect x="1088" y="582" width="350" height="190" rx="10" fill="#160F08" stroke="#F46800" stroke-width="1.4"/>
  <text x="1263" y="608" text-anchor="middle" font-size="14" font-weight="700" fill="#F97316">Grafana — Visualize &amp; Correlate</text>
  <text x="1263" y="631" text-anchor="middle" font-size="10.5" fill="#94A3B8">localhost:3000 · dashboards provisioned as code</text>
  <rect x="1106" y="644" width="314" height="30" rx="5" fill="#0B0704"/>
  <text x="1263" y="663" text-anchor="middle" font-size="10.5" fill="#FDBA74">JVM · HTTP · Kafka · outbox · business · resilience</text>
  <rect x="1106" y="680" width="314" height="30" rx="5" fill="#0B0704" stroke="#22D3EE" stroke-width="0.6"/>
  <text x="1263" y="699" text-anchor="middle" font-size="10.5" fill="#7DD3FC">Bidirectional Tempo ↔ Loki correlation</text>
  <rect x="1106" y="716" width="314" height="42" rx="5" fill="#0B0704"/>
  <text x="1263" y="733" text-anchor="middle" font-size="10" fill="#94A3B8">derived fields (Loki→Tempo) + trace-to-logs</text>
  <text x="1263" y="749" text-anchor="middle" font-size="10" fill="#64748B">one-click pivot: dashboard → trace → exact logs</text>

  <!-- ============ ROADMAP STRIP ============ -->
  <text x="52" y="828" font-size="12" font-weight="700" fill="#64748B" letter-spacing="1">ROADMAP</text>
  <rect x="150" y="810" width="300" height="42" rx="8" fill="#0F1B2D" stroke="#475569" stroke-width="1" stroke-dasharray="5,3"/>
  <text x="300" y="828" text-anchor="middle" font-size="11" font-weight="600" fill="#94A3B8">Phase 7 · SLOs + burn-rate alerting</text>
  <text x="300" y="843" text-anchor="middle" font-size="9.5" fill="#475569">Alertmanager · multi-window burn rates · runbooks</text>
  <rect x="470" y="810" width="280" height="42" rx="8" fill="#0F1B2D" stroke="#475569" stroke-width="1" stroke-dasharray="5,3"/>
  <text x="610" y="828" text-anchor="middle" font-size="11" font-weight="600" fill="#94A3B8">Phase 8 · Kubernetes</text>
  <text x="610" y="843" text-anchor="middle" font-size="9.5" fill="#475569">kind → kube-prometheus-stack · probes</text>
  <rect x="770" y="810" width="300" height="42" rx="8" fill="#0F1B2D" stroke="#475569" stroke-width="1" stroke-dasharray="5,3"/>
  <text x="920" y="828" text-anchor="middle" font-size="11" font-weight="600" fill="#94A3B8">Phase 9 · ai-service</text>
  <text x="920" y="843" text-anchor="middle" font-size="9.5" fill="#475569">Spring AI · PGVector · traced LLM calls</text>
  <rect x="1090" y="810" width="300" height="42" rx="8" fill="#0F1B2D" stroke="#475569" stroke-width="1" stroke-dasharray="5,3"/>
  <text x="1240" y="828" text-anchor="middle" font-size="11" font-weight="600" fill="#94A3B8">Phase 10 · AWS</text>
  <text x="1240" y="843" text-anchor="middle" font-size="9.5" fill="#475569">Terraform · EKS · RDS · MSK</text>

  <!-- FOOTER -->
  <rect x="40" y="872" width="1420" height="40" rx="8" fill="#0A1220" stroke="#1E2D45" stroke-width="1"/>
  <text x="180" y="897" text-anchor="middle" font-size="10.5" fill="#475569">github.com/Rummy43/ai-microservices-platform</text>
  <text x="750" y="897" text-anchor="middle" font-size="11" font-weight="600" fill="#64748B">Verify, don't assume — every claim checked against the backend, not the dashboard</text>
  <text x="1330" y="897" text-anchor="middle" font-size="10.5" fill="#475569">by Ramesh Yara · 2026</text>

  <!-- arrow legend -->
  <text x="750" y="936" text-anchor="middle" font-size="10" fill="#5A6B85">── request / event flow    ╌╌ telemetry collection    ┄┄ planned    ·· identity &amp; trace context</text>
</svg>